<svg xmlns="http://www.w3.org/2000/svg" viewBox="0 0 64 64" role="img" aria-label="Windows KMU Baseline Pack">
  <defs>
    <linearGradient id="bg" x1="0" y1="0" x2="1" y2="1">
      <stop offset="0%" stop-color="#0a121c"/>
      <stop offset="100%" stop-color="#14283f"/>
    </linearGradient>
  </defs>
  <rect width="64" height="64" rx="14" fill="url(#bg)"/>
  <path d="M32 6 L50 14 L47 38 C45 47 40 54 32 58 C24 54 19 47 17 38 L14 14 Z" fill="#1677ff"/>
  <path d="M32 11 L45 17 L42.6 36.8 C41 43.6 37.2 48.8 32 52 C26.8 48.8 23 43.6 21.4 36.8 L19 17 Z" fill="#f7fbff"/>
  <rect x="24" y="23" width="6.8" height="8" rx="1.2" fill="#1677ff"/>
  <rect x="33.2" y="23" width="6.8" height="8" rx="1.2" fill="#1677ff"/>
  <rect x="24" y="33.2" width="6.8" height="8" rx="1.2" fill="#1677ff"/>
  <rect x="33.2" y="33.2" width="6.8" height="8" rx="1.2" fill="#1677ff"/>
</svg>
