<svg xmlns="http://www.w3.org/2000/svg" viewBox="0 0 64 64" role="img" aria-label="Windows KMU Baseline Pack dark">
  <rect width="64" height="64" rx="14" fill="#081018"/>
  <path d="M32 6 L50 14 L47 38 C45 47 40 54 32 58 C24 54 19 47 17 38 L14 14 Z" fill="#5aa2ff"/>
  <path d="M32 11 L45 17 L42.6 36.8 C41 43.6 37.2 48.8 32 52 C26.8 48.8 23 43.6 21.4 36.8 L19 17 Z" fill="#eef6ff"/>
  <rect x="24" y="23" width="6.8" height="8" rx="1.2" fill="#0d59d9"/>
  <rect x="33.2" y="23" width="6.8" height="8" rx="1.2" fill="#0d59d9"/>
  <rect x="24" y="33.2" width="6.8" height="8" rx="1.2" fill="#0d59d9"/>
  <rect x="33.2" y="33.2" width="6.8" height="8" rx="1.2" fill="#0d59d9"/>
</svg>
