<?xml version="1.0" encoding="UTF-8"?>
<svg id="Ebene_1" xmlns="http://www.w3.org/2000/svg" version="1.1" viewBox="0 0 195 208">
  <!-- Generator: Adobe Illustrator 30.3.0, SVG Export Plug-In . SVG Version: 2.1.3 Build 182)  -->
  <defs>
    <style>
      .st0 {
        fill: #fffefe;
      }

      .st1 {
        fill: #058ede;
      }
    </style>
  </defs>
  <path d="M94.24,181.04q-2.44-.63-20.72-11.89c-6.11-3.75-12.34-7.61-13.86-8.55-1.51-.94-5.54-3.42-8.94-5.5-10.56-6.47-17.53-10.81-18.77-11.7-1.93-1.36-3.77-3.46-4.64-5.29-1.45-3.01-1.38-.65-1.32-40.12l.06-35.38.55-1.57c.79-2.2,1.69-3.6,3.38-5.17,1.73-1.61,3.09-2.36,10.03-5.45,5.03-2.24,13.15-5.92,35.68-16.18,16.59-7.53,17.55-7.96,19.56-8.39,2.67-.61,5.54-.26,8.57,1.04.85.37,6.35,2.89,23.86,10.95,4.76,2.2,14.05,6.47,20.66,9.49,6.6,3.03,12.54,5.84,13.21,6.21,2.56,1.51,4.48,3.83,5.46,6.62.47,1.34.53,1.81.65,5.88.08,2.44.14,18.89.12,36.56l-.04,32.14-.43,1.47c-.73,2.42-1.55,3.89-3.16,5.58-1.53,1.61-3.75,3.16-11.01,7.73-1.89,1.18-7.33,4.62-12.09,7.63-38.61,24.39-36.88,23.35-39.61,23.96-1.89.43-5.41.39-7.19-.08h-.01ZM126.01,151.85c3.01-1.63,20.31-11.26,24.83-13.82l3.28-1.87V59.2l-2.79-.9c-1.55-.49-8.71-2.83-15.92-5.19l-13.13-4.3v40.7l-1.2-.14c-.67-.06-11.28-.12-23.59-.12h-22.39v-40.52l-.43.14c-.57.16-4.7,1.49-19.22,6.17-6.43,2.06-11.91,3.83-12.19,3.91l-.49.16v76.78l5.6,3.15c3.09,1.73,10.34,5.72,16.12,8.89l10.52,5.76.06-20.72.04-20.72h47.18v41.72l.65-.39c.33-.22,1.73-.98,3.09-1.71l-.02-.02Z"/>
  <g>
    <path class="st0" d="M95.04,194c-4.7-.63-6.53-1.61-26.14-13.84-1.08-.67-5.11-3.16-8.94-5.54-3.83-2.38-9.71-6.03-13.07-8.12-3.34-2.06-7.06-4.36-8.26-5.11-16.77-10.36-18.46-11.48-20.54-13.56-2.1-2.1-3.97-5.39-4.72-8.32-.79-3.15-.81-4.29-.75-43.29.08-34.34.1-37.66.41-38.86,1.02-4.11,3.07-7.47,5.98-9.83,1.81-1.47,5.03-3.09,13.31-6.74,2.36-1.04,4.44-1.99,4.62-2.06.47-.26,1.83-.85,4.25-1.89,1.2-.51,2.65-1.18,3.26-1.47.61-.31,1.18-.57,1.24-.57.14,0,.9-.33,3.75-1.67.77-.35,1.87-.85,2.46-1.08.59-.24,1.71-.73,2.46-1.08.77-.37,2.08-.96,2.95-1.34.86-.37,2.28-1,3.15-1.42.86-.39,2.1-.96,2.75-1.28.65-.29,1.89-.83,2.75-1.18s2.38-1.02,3.34-1.49c1.77-.85,5.56-2.56,10.03-4.5,1.3-.57,3.03-1.36,3.83-1.73.81-.37,2.02-.92,2.71-1.2.69-.29,1.97-.86,2.85-1.28,5.72-2.71,12.13-2.87,17.93-.45,1.57.65,5.41,2.42,15.53,7.12,3.89,1.81,8.85,4.11,11.01,5.11,3.77,1.73,5.25,2.44,12.48,5.8,1.79.83,3.42,1.59,3.64,1.67.35.14,6.27,2.87,14.05,6.49,9.14,4.27,10.18,4.86,12.42,7.25,1.65,1.77,2.91,3.85,3.72,6.19,1.22,3.5,1.18,1.83,1.12,44.6l-.06,38.96-.53,1.91c-.98,3.6-3.09,6.94-5.8,9.24-1.97,1.67-4.88,3.54-27.38,17.69-3.18,2.01-7.53,4.74-9.63,6.05-9.55,6.02-12.56,7.9-19.66,12.33-10.73,6.7-11.83,7.29-15.12,8.14-1.75.47-5.35.63-7.39.35h0ZM100.84,180.53c2.73-.61,1,.43,39.61-23.96,4.76-3.01,10.2-6.45,12.09-7.63,7.25-4.56,9.47-6.11,11.01-7.73,1.65-1.73,2.48-3.22,3.16-5.68l.45-1.57-.02-35.11c-.02-19.32-.08-35.5-.16-35.97-.61-3.64-2.85-6.86-6.03-8.75-.67-.37-6.6-3.18-13.21-6.21-6.6-3.03-15.9-7.29-20.66-9.49-25.83-11.89-24.16-11.13-25.91-11.7-2.79-.92-5.17-.69-8.87.88-1.1.45-8.32,3.7-16.04,7.21-22.53,10.26-30.65,13.94-35.68,16.18-6.94,3.09-8.3,3.83-10.03,5.45-1.69,1.57-2.59,2.97-3.38,5.17l-.55,1.57-.06,34.79c-.06,38.8-.12,36.52,1.32,39.53.86,1.83,2.71,3.93,4.64,5.29,1.24.88,8.22,5.23,18.77,11.7,3.4,2.08,7.43,4.56,8.94,5.5s7.74,4.8,13.86,8.55q18.32,11.28,20.72,11.89c1.73.45,4.23.49,6.02.08h.01Z"/>
    <path class="st0" d="M74.99,154.62c-.22-.14-4.8-2.65-10.16-5.58-10.01-5.46-22.35-12.34-22.61-12.6-.1-.08-.18-17.63-.2-39l-.06-38.86,1.97-.61c1.08-.33,5.72-1.83,10.32-3.32,4.6-1.49,11.18-3.62,14.64-4.72,3.46-1.12,6.41-2.06,6.55-2.12.18-.06.24,4.09.24,20.38v20.46h22.68c12.48,0,22.82.06,23,.12.29.12.31-1.77.31-20.36v-20.48l.45.08c.24.06,7.25,2.34,15.57,5.05,8.33,2.73,15.55,5.09,16.08,5.25l.92.31v78.14l-3.28,1.87c-11.03,6.25-29.21,16.28-29.53,16.28-.16,0-.22-6-.22-21.03v-21.03h-46v21.03c0,11.58-.06,21.03-.16,21.03-.08,0-.31-.12-.53-.28h.02Z"/>
  </g>
  <path class="st1" d="M93.45,201.76c-2.4-.39-5.09-1.32-7.59-2.61-3.03-1.55-13.27-7.74-33.38-20.17-4.17-2.58-12.6-7.78-18.77-11.6-15.88-9.79-16.49-10.18-19.44-12.66-5.41-4.54-8.69-11.09-9.34-18.6-.28-3.07-.28-73.32-.02-76.03.49-4.99,2.4-9.63,5.6-13.64,3.36-4.21,5.84-5.74,18.18-11.32,6.35-2.87,21.05-9.49,29.88-13.45,3.73-1.67,9.36-4.19,12.48-5.6,15.12-6.8,17.14-7.69,19.26-8.3,3.89-1.14,9.4-1.36,13.05-.55,3.62.81,4.99,1.4,25.08,10.71,2.93,1.36,10.44,4.82,16.71,7.71,28.09,12.93,30.45,14.07,33.14,16.1,5.33,4.01,8.9,10.08,9.93,16.87.24,1.65.28,7.43.22,41.18l-.06,39.28-.41,1.69c-1.97,7.9-5.76,13.09-13.13,17.87-1.85,1.22-8.33,5.33-11.01,6.98-1.18.75-2.81,1.77-3.6,2.3-.81.51-1.47.94-1.51.94-.08,0-5.01,3.07-6.49,4.03-.53.35-1.55,1-2.26,1.42-.71.43-2.89,1.79-4.88,3.03s-3.83,2.38-4.13,2.56c-.29.18-2.65,1.63-5.25,3.26-2.59,1.61-8.39,5.23-12.88,8-4.48,2.79-8.69,5.41-9.34,5.82-1.91,1.22-6.05,3.28-7.69,3.83-3.7,1.24-8.53,1.61-12.38.96h.03ZM101.84,193.05c3.24-.83,4.36-1.43,15.12-8.14,7.1-4.42,10.1-6.31,19.66-12.33,2.1-1.32,6.45-4.05,9.63-6.05,22.51-14.15,25.42-16.02,27.38-17.69,2.71-2.3,4.82-5.64,5.8-9.24l.53-1.91.06-38.37c.06-42.13.1-40.51-1.12-44.01-.81-2.34-2.06-4.42-3.72-6.19-2.24-2.4-3.28-2.99-12.42-7.25-7.78-3.62-13.7-6.35-14.05-6.49-.22-.08-1.85-.85-3.64-1.67-7.23-3.36-8.71-4.07-12.48-5.8-2.16-1-7.12-3.3-11.01-5.11-15.77-7.31-16.16-7.49-18.67-8.16-4.54-1.18-8.96-.71-13.6,1.49-.88.41-2.16.98-2.85,1.28-.69.28-1.91.83-2.71,1.2-.81.37-2.54,1.16-3.83,1.73-4.46,1.95-8.26,3.66-10.03,4.5-.96.47-2.48,1.14-3.34,1.49-.86.35-2.1.88-2.75,1.18-.65.31-1.89.88-2.75,1.28-.86.41-2.28,1.04-3.15,1.42-.86.37-2.18.96-2.95,1.34-.75.35-1.87.85-2.46,1.08-.59.24-1.69.73-2.46,1.08-2.85,1.34-3.62,1.67-3.75,1.67-.06,0-.63.26-1.24.57-.61.29-2.06.96-3.26,1.47-2.42,1.04-3.77,1.63-4.25,1.89-.18.08-2.26,1.02-4.62,2.06-8.28,3.66-11.5,5.27-13.31,6.74-2.91,2.36-4.95,5.72-5.98,9.83-.31,1.2-.33,4.48-.41,38.27-.04,25.59,0,37.6.16,39.06.61,6.15,3.09,10.58,7.9,14.17,1.2.9,7.21,4.72,17.95,11.34,1.2.75,4.91,3.05,8.26,5.11,3.36,2.08,9.24,5.74,13.07,8.12,3.83,2.38,7.86,4.88,8.94,5.54,16.87,10.52,20.21,12.42,23.29,13.25,3.18.86,6.29.94,9.06.24h0Z"/>
</svg>