<?xml version="1.0" encoding="utf-8"?>
<!DOCTYPE svg PUBLIC "-//W3C//DTD SVG 1.0//EN" "http://www.w3.org/TR/2001/REC-SVG-20010904/DTD/svg10.dtd">
<svg version="1.0" xmlns="http://www.w3.org/2000/svg" width="195px" height="208px" viewBox="0 0 195 208" preserveAspectRatio="xMidYMid meet">
 <g fill="#000000">
  <path d="M0 103.79 l0 -103.79 97.50 0 97.50 0 0 103.79 0 103.79 -97.50 0 -97.50 0 0 -103.79z m101.79 97.30 c1.06 -0.20 2.63 -0.61 3.46 -0.88 1.63 -0.55 5.78 -2.61 7.69 -3.83 0.65 -0.41 4.86 -3.03 9.34 -5.82 4.48 -2.77 10.28 -6.39 12.88 -8 2.59 -1.63 4.95 -3.09 5.25 -3.26 0.29 -0.18 2.14 -1.32 4.13 -2.56 1.99 -1.24 4.17 -2.59 4.88 -3.03 0.71 -0.41 1.73 -1.06 2.26 -1.42 1.47 -0.96 6.41 -4.03 6.49 -4.03 0.04 0 0.71 -0.43 1.51 -0.94 0.79 -0.53 2.42 -1.55 3.60 -2.30 2.67 -1.65 9.16 -5.76 11.01 -6.98 7.37 -4.78 11.17 -9.97 13.13 -17.87 l0.41 -1.69 0.06 -38.67 c0.06 -33.24 0.02 -38.96 -0.22 -40.59 -1.02 -6.80 -4.60 -12.88 -9.93 -16.89 -2.69 -2.02 -5.05 -3.16 -33.14 -16.10 -6.27 -2.89 -13.78 -6.35 -16.71 -7.71 -20.09 -9.32 -21.47 -9.91 -25.08 -10.71 -3.46 -0.77 -8.04 -0.55 -11.87 0.55 -2.12 0.61 -4.15 1.47 -19.26 8.30 -3.13 1.42 -8.75 3.93 -12.48 5.60 -8.83 3.95 -23.53 10.58 -29.88 13.45 -12.34 5.58 -14.82 7.12 -18.18 11.32 -3.20 4.01 -5.11 8.65 -5.60 13.64 -0.26 2.71 -0.26 71.79 0.02 74.85 0.65 7.51 3.93 14.05 9.34 18.60 2.95 2.48 3.56 2.87 19.44 12.66 6.17 3.81 14.61 9.02 18.77 11.60 20.11 12.42 30.35 18.62 33.38 20.17 5.11 2.63 10.42 3.52 15.33 2.54z"/>
  <path d="M94.24 181.04 c-2.44 -0.63 -2.40 -0.61 -20.72 -11.89 -6.11 -3.75 -12.34 -7.61 -13.86 -8.55 -1.51 -0.94 -5.54 -3.42 -8.94 -5.50 -10.56 -6.47 -17.53 -10.81 -18.77 -11.70 -1.93 -1.36 -3.77 -3.46 -4.64 -5.29 -1.45 -3.01 -1.38 -0.65 -1.32 -40.12 l0.06 -35.38 0.55 -1.57 c0.79 -2.20 1.69 -3.60 3.38 -5.17 1.73 -1.61 3.09 -2.36 10.03 -5.45 5.03 -2.24 13.15 -5.92 35.68 -16.18 16.59 -7.53 17.55 -7.96 19.56 -8.39 2.67 -0.61 5.54 -0.26 8.57 1.04 0.85 0.37 6.35 2.89 23.86 10.95 4.76 2.20 14.05 6.47 20.66 9.49 6.60 3.03 12.54 5.84 13.21 6.21 2.56 1.51 4.48 3.83 5.46 6.62 0.47 1.34 0.53 1.81 0.65 5.88 0.08 2.44 0.14 18.89 0.12 36.56 l-0.04 32.14 -0.43 1.47 c-0.73 2.42 -1.55 3.89 -3.16 5.58 -1.53 1.61 -3.75 3.16 -11.01 7.73 -1.89 1.18 -7.33 4.62 -12.09 7.63 -38.61 24.39 -36.88 23.35 -39.61 23.96 -1.89 0.43 -5.41 0.39 -7.19 -0.08z m31.77 -29.19 c3.01 -1.63 20.31 -11.26 24.83 -13.82 l3.28 -1.87 0 -38.49 0 -38.47 -2.79 -0.90 c-1.55 -0.49 -8.71 -2.83 -15.92 -5.19 l-13.13 -4.30 0 20.35 0 20.35 -1.20 -0.14 c-0.67 -0.06 -11.28 -0.12 -23.59 -0.12 l-22.39 0 0 -20.27 0 -20.25 -0.43 0.14 c-0.57 0.16 -4.70 1.49 -19.22 6.17 -6.43 2.06 -11.91 3.83 -12.19 3.91 l-0.49 0.16 0 38.39 0 38.39 5.60 3.15 c3.09 1.73 10.34 5.72 16.12 8.89 l10.52 5.76 0.06 -20.72 0.04 -20.72 23.59 0 23.59 0 0 20.86 0 20.86 0.65 -0.39 c0.33 -0.22 1.73 -0.98 3.09 -1.71z"/>
 </g>
 <g fill="#fffefe">
  <path d="M95.04 194 c-4.70 -0.63 -6.53 -1.61 -26.14 -13.84 -1.08 -0.67 -5.11 -3.16 -8.94 -5.54 -3.83 -2.38 -9.71 -6.03 -13.07 -8.12 -3.34 -2.06 -7.06 -4.36 -8.26 -5.11 -16.77 -10.36 -18.46 -11.48 -20.54 -13.56 -2.10 -2.10 -3.97 -5.39 -4.72 -8.32 -0.79 -3.15 -0.81 -4.29 -0.75 -43.29 0.08 -34.34 0.10 -37.66 0.41 -38.86 1.02 -4.11 3.07 -7.47 5.98 -9.83 1.81 -1.47 5.03 -3.09 13.31 -6.74 2.36 -1.04 4.44 -1.99 4.62 -2.06 0.47 -0.26 1.83 -0.85 4.25 -1.89 1.20 -0.51 2.65 -1.18 3.26 -1.47 0.61 -0.31 1.18 -0.57 1.24 -0.57 0.14 0 0.90 -0.33 3.75 -1.67 0.77 -0.35 1.87 -0.85 2.46 -1.08 0.59 -0.24 1.71 -0.73 2.46 -1.08 0.77 -0.37 2.08 -0.96 2.95 -1.34 0.86 -0.37 2.28 -1 3.15 -1.42 0.86 -0.39 2.10 -0.96 2.75 -1.28 0.65 -0.29 1.89 -0.83 2.75 -1.18 0.86 -0.35 2.38 -1.02 3.34 -1.49 1.77 -0.85 5.56 -2.56 10.03 -4.50 1.30 -0.57 3.03 -1.36 3.83 -1.73 0.81 -0.37 2.02 -0.92 2.71 -1.20 0.69 -0.29 1.97 -0.86 2.85 -1.28 5.72 -2.71 12.13 -2.87 17.93 -0.45 1.57 0.65 5.41 2.42 15.53 7.12 3.89 1.81 8.85 4.11 11.01 5.11 3.77 1.73 5.25 2.44 12.48 5.80 1.79 0.83 3.42 1.59 3.64 1.67 0.35 0.14 6.27 2.87 14.05 6.49 9.14 4.27 10.18 4.86 12.42 7.25 1.65 1.77 2.91 3.85 3.72 6.19 1.22 3.50 1.18 1.83 1.12 44.60 l-0.06 38.96 -0.53 1.91 c-0.98 3.60 -3.09 6.94 -5.80 9.24 -1.97 1.67 -4.88 3.54 -27.38 17.69 -3.18 2.01 -7.53 4.74 -9.63 6.05 -9.55 6.02 -12.56 7.90 -19.66 12.33 -10.73 6.70 -11.83 7.29 -15.12 8.14 -1.75 0.47 -5.35 0.63 -7.39 0.35z m5.80 -13.47 c2.73 -0.61 1 0.43 39.61 -23.96 4.76 -3.01 10.20 -6.45 12.09 -7.63 7.25 -4.56 9.47 -6.11 11.01 -7.73 1.65 -1.73 2.48 -3.22 3.16 -5.68 l0.45 -1.57 -0.02 -35.11 c-0.02 -19.32 -0.08 -35.50 -0.16 -35.97 -0.61 -3.64 -2.85 -6.86 -6.03 -8.75 -0.67 -0.37 -6.60 -3.18 -13.21 -6.21 -6.60 -3.03 -15.90 -7.29 -20.66 -9.49 -25.83 -11.89 -24.16 -11.13 -25.91 -11.70 -2.79 -0.92 -5.17 -0.69 -8.87 0.88 -1.10 0.45 -8.32 3.70 -16.04 7.21 -22.53 10.26 -30.65 13.94 -35.68 16.18 -6.94 3.09 -8.30 3.83 -10.03 5.45 -1.69 1.57 -2.59 2.97 -3.38 5.17 l-0.55 1.57 -0.06 34.79 c-0.06 38.80 -0.12 36.52 1.32 39.53 0.86 1.83 2.71 3.93 4.64 5.29 1.24 0.88 8.22 5.23 18.77 11.70 3.40 2.08 7.43 4.56 8.94 5.50 1.51 0.94 7.74 4.80 13.86 8.55 18.32 11.28 18.28 11.26 20.72 11.89 1.73 0.45 4.23 0.49 6.02 0.08z"/>
  <path d="M74.99 154.62 c-0.22 -0.14 -4.80 -2.65 -10.16 -5.58 -10.01 -5.46 -22.35 -12.34 -22.61 -12.60 -0.10 -0.08 -0.18 -17.63 -0.20 -39 l-0.06 -38.86 1.97 -0.61 c1.08 -0.33 5.72 -1.83 10.32 -3.32 4.60 -1.49 11.18 -3.62 14.64 -4.72 3.46 -1.12 6.41 -2.06 6.55 -2.12 0.18 -0.06 0.24 4.09 0.24 20.38 l0 20.46 22.68 0 c12.48 0 22.82 0.06 23 0.12 0.29 0.12 0.31 -1.77 0.31 -20.36 l0 -20.48 0.45 0.08 c0.24 0.06 7.25 2.34 15.57 5.05 8.33 2.73 15.55 5.09 16.08 5.25 l0.92 0.31 0 39.06 0 39.08 -3.28 1.87 c-11.03 6.25 -29.21 16.28 -29.53 16.28 -0.16 0 -0.22 -6 -0.22 -21.03 l0 -21.03 -23 0 -23 0 0 21.03 c0 11.58 -0.06 21.03 -0.16 21.03 -0.08 0 -0.31 -0.12 -0.53 -0.28z"/>
 </g>
 <g fill="#058ede">
  <path d="M93.45 201.76 c-2.40 -0.39 -5.09 -1.32 -7.59 -2.61 -3.03 -1.55 -13.27 -7.74 -33.38 -20.17 -4.17 -2.58 -12.60 -7.78 -18.77 -11.60 -15.88 -9.79 -16.49 -10.18 -19.44 -12.66 -5.41 -4.54 -8.69 -11.09 -9.34 -18.60 -0.28 -3.07 -0.28 -73.32 -0.02 -76.03 0.49 -4.99 2.40 -9.63 5.60 -13.64 3.36 -4.21 5.84 -5.74 18.18 -11.32 6.35 -2.87 21.05 -9.49 29.88 -13.45 3.73 -1.67 9.36 -4.19 12.48 -5.60 15.12 -6.80 17.14 -7.69 19.26 -8.30 3.89 -1.14 9.40 -1.36 13.05 -0.55 3.62 0.81 4.99 1.40 25.08 10.71 2.93 1.36 10.44 4.82 16.71 7.71 28.09 12.93 30.45 14.07 33.14 16.10 5.33 4.01 8.90 10.08 9.93 16.87 0.24 1.65 0.28 7.43 0.22 41.18 l-0.06 39.28 -0.41 1.69 c-1.97 7.90 -5.76 13.09 -13.13 17.87 -1.85 1.22 -8.33 5.33 -11.01 6.98 -1.18 0.75 -2.81 1.77 -3.60 2.30 -0.81 0.51 -1.47 0.94 -1.51 0.94 -0.08 0 -5.01 3.07 -6.49 4.03 -0.53 0.35 -1.55 1 -2.26 1.42 -0.71 0.43 -2.89 1.79 -4.88 3.03 -1.99 1.24 -3.83 2.38 -4.13 2.56 -0.29 0.18 -2.65 1.63 -5.25 3.26 -2.59 1.61 -8.39 5.23 -12.88 8 -4.48 2.79 -8.69 5.41 -9.34 5.82 -1.91 1.22 -6.05 3.28 -7.69 3.83 -3.70 1.24 -8.53 1.61 -12.38 0.96z m8.39 -8.71 c3.24 -0.83 4.36 -1.43 15.12 -8.14 7.10 -4.42 10.10 -6.31 19.66 -12.33 2.10 -1.32 6.45 -4.05 9.63 -6.05 22.51 -14.15 25.42 -16.02 27.38 -17.69 2.71 -2.30 4.82 -5.64 5.80 -9.24 l0.53 -1.91 0.06 -38.37 c0.06 -42.13 0.10 -40.51 -1.12 -44.01 -0.81 -2.34 -2.06 -4.42 -3.72 -6.19 -2.24 -2.40 -3.28 -2.99 -12.42 -7.25 -7.78 -3.62 -13.70 -6.35 -14.05 -6.49 -0.22 -0.08 -1.85 -0.85 -3.64 -1.67 -7.23 -3.36 -8.71 -4.07 -12.48 -5.80 -2.16 -1 -7.12 -3.30 -11.01 -5.11 -15.77 -7.31 -16.16 -7.49 -18.67 -8.16 -4.54 -1.18 -8.96 -0.71 -13.60 1.49 -0.88 0.41 -2.16 0.98 -2.85 1.28 -0.69 0.28 -1.91 0.83 -2.71 1.20 -0.81 0.37 -2.54 1.16 -3.83 1.73 -4.46 1.95 -8.26 3.66 -10.03 4.50 -0.96 0.47 -2.48 1.14 -3.34 1.49 -0.86 0.35 -2.10 0.88 -2.75 1.18 -0.65 0.31 -1.89 0.88 -2.75 1.28 -0.86 0.41 -2.28 1.04 -3.15 1.42 -0.86 0.37 -2.18 0.96 -2.95 1.34 -0.75 0.35 -1.87 0.85 -2.46 1.08 -0.59 0.24 -1.69 0.73 -2.46 1.08 -2.85 1.34 -3.62 1.67 -3.75 1.67 -0.06 0 -0.63 0.26 -1.24 0.57 -0.61 0.29 -2.06 0.96 -3.26 1.47 -2.42 1.04 -3.77 1.63 -4.25 1.89 -0.18 0.08 -2.26 1.02 -4.62 2.06 -8.28 3.66 -11.50 5.27 -13.31 6.74 -2.91 2.36 -4.95 5.72 -5.98 9.83 -0.31 1.20 -0.33 4.48 -0.41 38.27 -0.04 25.59 0 37.60 0.16 39.06 0.61 6.15 3.09 10.58 7.90 14.17 1.20 0.90 7.21 4.72 17.95 11.34 1.20 0.75 4.91 3.05 8.26 5.11 3.36 2.08 9.24 5.74 13.07 8.12 3.83 2.38 7.86 4.88 8.94 5.54 16.87 10.52 20.21 12.42 23.29 13.25 3.18 0.86 6.29 0.94 9.06 0.24z"/>
 </g>
</svg>